# xmcd CD database file
# Copyright (C) 1993-1998 Ti Kan
#
# Track frame offsets:
#	150
#	18830
#	37835
#	58622
#	73742
#	85970
#	99110
#	114637
#	126100
#	143547
#	159785
#	175730
#	198720
#
# Disc length: 2727 seconds
#
# Revision: 1
# Processed by: cddbd v1.4b41PL1 Copyright (c) Steve Scherf et al.
# Submitted via: xmcd 2.1 PL2
#
DISCID=9f0aa50d
DTITLE=Louisiana Radio - Wulf [Laiv]
DYEAR=1900
DGENRE=
TTITLE0=Playwolf
TTITLE1=On The Road Again
TTITLE2=Red' Bayou Rap
TTITLE3=Humpty Dumpty
TTITLE4=Petit Madam
TTITLE5=The Blind Man
TTITLE6=Soif!
TTITLE7=Get Up Papa
TTITLE8=Little Lisa
TTITLE9=Feet Don't Fail Me Now
TTITLE10=Hush, Shucks Your Mouth
TTITLE11=Slippin' and Slidin'
TTITLE12=E Mama (Reprise)
EXTD=
EXTT0=
EXTT1=
EXTT2=
EXTT3=
EXTT4=
EXTT5=
EXTT6=
EXTT7=
EXTT8=
EXTT9=
EXTT10=
EXTT11=
EXTT12=
PLAYORDER=
